<svg width="90" height="170" viewBox="0 0 90 170" fill="black"
  xmlns="http://www.w3.org/2000/svg">
  <path d="M48 40V0L56 1L60 2L65 3L68 4L71 5L74 7V30L54 44H53L48 40Z" />
  <path d="M90 18L80.5 10.5V31L90 37.5V18Z" />
  <path d="M90 55V45L77 36H76L57 49V57L73 46H74L86 55H90Z" />
  <path d="M58 64L74 53L81 59L65.5 71L58 64Z" />
  <path d="M57 81V72H58L64 77H66L87 63L90 65V80L73 92H72L57 81Z" />
  <path d="M81 94L90 87V131L81 139V94Z" />
  <path d="M0 18L9.5 10.5V31L0 37.5V18Z" />
  <path d="M0 55V45L13 36H14L33 49V57L17 46H16L4 55H0Z" />
  <path d="M32 64L16 53L9 59L24.5 71L32 64Z" />
  <path d="M33 81V72H32L26 77H24L3 63L0 65V80L17 92H18L33 81Z" />
  <path d="M35 88H34L16 102V146L25 155H26V108L34 102H42V93L35 88Z" />
  <path d="M9 94L0 87V131L9 139V94Z" />
  <path d="M51 49L45 45L39 49V55H51V49Z" />
  <path d="M39 61H51V83L46 88H45L39 83V61Z" />
  <path d="M56 88L49 93V102H57L65 108V155H66L74 146V102L57 88H56Z" />
  <path d="M58 123V112L53 108H37L32 112V123L37 119H53L58 123Z" />
  <path d="M49 170V125L59 132V161L49 170Z" />
  <path d="M42 170V125L32 132V161L42 170Z" />
  <path d="M42 40V0L34 1L30 2L25 3L22 4L19 5L16 7V30L36 44H37L42 40Z" />
</svg>
