<?xml version="1.0" encoding="utf-8"?>
<!-- Generator: Adobe Illustrator 18.0.0, SVG Export Plug-In . SVG Version: 6.00 Build 0)  -->
<!DOCTYPE svg PUBLIC "-//W3C//DTD SVG 1.1//EN" "http://www.w3.org/Graphics/SVG/1.1/DTD/svg11.dtd">
<svg version="1.1" id="Layer_1" xmlns="http://www.w3.org/2000/svg" xmlns:xlink="http://www.w3.org/1999/xlink" x="0px" y="0px"
	 viewBox="0 0 507 507" enable-background="new 0 0 507 507" xml:space="preserve">
<path fill="#010101" d="M463.2,279.9c14.8-6.3,43.8-20.3,43.8-20.3l-43.2-16c-1-16-3.9-31.5-8.3-46.3c10.8-11.2,33.3-37,33.3-37
	l-47,2.4c-6.7-13.4-14.8-26-24.1-37.7c5.5-13,18.1-48.8,18.1-48.8l-45.2,20.8c-11.1-9.6-23.2-18.1-36.1-25.2c0.4-14.9-0.8-51-0.8-51
	L319.3,56c-14.9-5-30.6-8.4-46.9-10c-5.8-13.8-21.2-46-21.2-46l-17,45.8c-16.2,1.3-32,4.4-47,9.2c-11.6-11.2-35.9-32.3-35.9-32.3
	l2.3,46.2c-15.8,8.2-30.4,18.3-43.6,30c-15.8-6-38.3-14-38.3-14l16.6,36.3c-9.9,11.8-18.5,24.7-25.7,38.4
	c-16.8-0.1-45.2,0.9-45.2,0.9l31.8,30.9c-5.6,17.2-9.1,35.4-10.2,54.1c-15.5,6.9-39,18.2-39,18.2l39.7,14.7
	c1.8,19.1,6.2,37.4,12.7,54.7c-11.5,12.4-27.7,31-27.7,31l41.2-2.1c7.8,13.9,17.1,26.8,27.7,38.5c-6,15.7-13.4,37-13.4,37l35.1-16.1
	c11.3,9.4,23.6,17.7,36.7,24.7c0.1,16.9,0.9,40.2,0.9,40.2l27-27.9c18.4,6.6,37.9,10.7,58.3,11.9c6.9,15.3,17.2,36.7,17.2,36.7
	l13.7-37c18.8-1.5,37-5.5,54.2-11.7c12.4,11.5,32,28.6,32,28.6l-2.2-42c11.6-6.3,22.5-13.6,32.6-21.9c14,5.8,47.4,17.5,47.4,17.5
	l-20.2-44c9.1-10.6,17.2-22,24.1-34.3c16.7,0.1,46-0.9,46-0.9l-31.5-30.6C457.3,314.6,461.3,297.6,463.2,279.9z M351.9,425.6
	l-22.8-65.1l-23.9,56.8c-0.8,1.9-3.4,1.7-4.1-0.2l-10.4-32.2l-13,34.4c-0.6,1.7-3.1,1.6-3.5-0.2l-7.9-34.2l-12.1,31.7
	c-0.6,1.5-2.6,1.5-3.2,0l-12-31.7l-7.9,34.2c-0.4,1.8-2.9,1.9-3.5,0.2l-13-34.4l-10.4,32.2c-0.6,1.9-3.3,2-4.1,0.2l-23.9-56.8
	l-22.9,65.4c-57.3-34-95.7-96.3-95.7-167.7c0-47,16.7-90.2,44.4-123.8l2.1,1.1c0,0,32,83.7,33.7,73.8c1.5-8.5,29.5-80,37.1-99.3
	c0.6-1.5,2.7-1.3,3.1,0.2c3.6,14.1,14.1,52.8,17.9,45.6c3.9-7.3,14.8-38,18.1-47.7c0.3-1,1.7-1,2.2,0c4.1,11,18.7,49.2,18.7,47.7
	c0-1,10.1-30.6,18.2-54.4c0.4-1.2,2.2-1.2,2.6,0c8.1,23.8,18.2,53.4,18.2,54.4c0,1.5,14.2-36,18.5-47.4c0.4-1.1,1.9-1,2.3,0
	c3.5,9.9,14.2,40.1,18.1,47.4c3.8,7.1,14.1-30.7,17.8-45.2c0.5-1.7,2.8-1.9,3.4-0.2c7.8,19.9,35.4,90.4,36.9,98.8
	c1.6,9.3,29.9-64,33.4-73c26.7,33.4,42.8,75.7,42.8,121.8C447.1,329.3,408.9,391.6,351.9,425.6z"/>
</svg>
