<svg width="1em" height="1em" viewBox="0 0 36 36" fill="none"
  xmlns="http://www.w3.org/2000/svg">
  <path d="M34.4 18L29.5 26.6L29.4 26.5L28.2 24.4L26.9 22.1L24.5 18H27.5C27.5 17.4 27.4333 16.8 27.3 16.2C26.2 11.1 21.7 7.3 16.4 7.3C10.2 7.3 5.3 12.3 5.3 18.4C5.3 24.6 10.2 29.5 16.4 29.5C20.4 29.5 24 27.4 25.9 24.1L27.1 26.2L27.9 27.5L28.3 28.2C25.4 31.6 21.2 33.8 16.4 33.8C7.9 33.8 1 26.9 1 18.4C1 9.9 7.9 3 16.4 3C24.1 3 30.5 8.7 31.6 16.2C31.6667 16.8 31.7 17.4 31.7 18H34.4Z" fill="black"/>
  <path d="M14.1 20.2996L11.5 17.5996L9 20.0996L14.1 25.2996L23.8 15.5996L21.3 13.0996L14.1 20.2996Z" fill="black"/>
</svg>
