<svg width="1em" height="1em" viewBox="0 0 36 37" fill="none"
  xmlns="http://www.w3.org/2000/svg">
  <path d="M20.1 7.5L20.3 9L23.5 12.2L19.4 16.3L19.8 16.7L6.1 30.3L6 30.2L5.2 30.9L7.3 33L8.1 32.3L7.9 32.1L21.5 18.4L21.9 18.8L26 14.7L29.2 17.9L30.7 18.1L34.1 14.7L33.9 13.2L31.3 10.6L31.8 10L28.2 6.4L27.7 6.9L25 4.3L23.5 4.1L20.1 7.5ZM10.1 4.2L7.4 6.9L6.9 6.3L3.3 10L3.8 10.5L1.2 13.2L1 14.7L4.4 18.1L5.9 17.9L9.1 14.7L13.2 18.8L13.6 18.4L27.2 32L27 32.2L27.8 33L29.9 30.9L29.1 30.1L29 30.3L15.3 16.7L15.7 16.3L11.6 12.2L14.8 9L15 7.5L11.6 4L10.1 4.2Z" fill="black"/>
</svg>
