<svg width="1em" height="1em" viewBox="0 0 36 36" fill="none"
  xmlns="http://www.w3.org/2000/svg">
  <g clip-path="url(#clip0_601_1136)">
    <path fill-rule="evenodd" clip-rule="evenodd" d="M27.9685 21.969L30.9224 25.4767L26.4916 24.646C25.9993 25.3229 25.4455 25.9075 24.8301 26.3998L25.6608 31.0152L21.9685 27.969C21.3532 28.2152 20.707 28.3998 20.0301 28.5229L18.2762 35.5383L16.4301 28.4306C15.8147 28.3075 15.1993 28.1537 14.5839 27.969L11.0762 30.9229L11.907 26.3998C11.2916 25.9075 10.7378 25.3537 10.2455 24.7383L5.99931 25.5691L8.76854 22.246C8.46085 21.5691 8.24546 20.8614 8.12239 20.1229L0.830078 18.2767L8.12239 16.4306C8.24546 15.6921 8.43008 15.0152 8.67623 14.3998L5.81469 10.9844L10.1532 11.8152C10.6455 11.1998 11.1993 10.646 11.8147 10.1537L11.0762 5.90751L14.307 8.67674C14.9839 8.36905 15.7224 8.15367 16.5224 8.03059L18.2762 0.738281L20.2147 8.03059C20.8916 8.15367 21.5685 8.33828 22.2455 8.58443L25.5685 5.8152L24.8301 10.1537C25.4455 10.646 25.9993 11.1998 26.4916 11.8152L31.0147 10.9844L28.0608 14.5844C28.307 15.1998 28.4608 15.8767 28.5224 16.6152L35.6301 18.369L28.5224 20.1229C28.3993 20.7998 28.2147 21.4152 27.9685 21.969ZM25.8455 18.4614C25.8455 14.3075 22.4301 10.8921 18.2762 10.8921C14.1224 10.8921 10.707 14.3075 10.707 18.4614C10.707 22.6152 14.1224 26.0306 18.2762 26.0306C22.4301 26.0306 25.8455 22.6152 25.8455 18.4614Z" fill="black"/>
  </g>
  <defs>
    <clipPath id="clip0_601_1136">
      <rect width="36" height="36" fill="white"/>
    </clipPath>
  </defs>
</svg>
